<?xml version="1.0" encoding="utf-8"?>
<!-- Generator: Adobe Illustrator 19.0.0, SVG Export Plug-In . SVG Version: 6.00 Build 0)  -->
<svg version="1.1" id="Layer_1" xmlns="http://www.w3.org/2000/svg" xmlns:xlink="http://www.w3.org/1999/xlink" x="0px" y="0px"
	 viewBox="0 0 96 96" style="enable-background:new 0 0 96 96;" xml:space="preserve">
<style type="text/css">
	.st0{fill:#333333;}
</style>
<g id="XMLID_1_">
	<path id="XMLID_7_" class="st0" d="M48,20.5c-15.2,0-27.5,12.3-27.5,27.5c0,15.2,12.3,27.5,27.5,27.5c15.2,0,27.5-12.3,27.5-27.5
		C75.5,32.8,63.2,20.5,48,20.5z M35.6,60.9l-0.3-0.5l-4.8-8.2l-0.1-0.2l0.1-0.2L41.5,33l0.3-0.5L42,33l4.8,8.2l0.1,0.2l-0.1,0.2
		L35.9,60.5L35.6,60.9z M64.7,53.5l-4.7,8.2L60,61.9h-0.2H37.9h-0.6l0.3-0.5l4.7-8.2l0.1-0.2h0.2h21.9H65L64.7,53.5z M64.5,51.1
		l-9.4,0h-0.2L54.7,51L43.8,32.1l-0.3-0.5l0.6,0l9.4,0l0.2,0l0.1,0.2l10.9,18.9l0.3,0.5L64.5,51.1z"/>
</g>
</svg>
